<svg xmlns="http://www.w3.org/2000/svg" width="512" height="512" viewBox="0 0 512 512"><defs><linearGradient id="bg" x1="0" x2=".8" y1="0" y2="1"><stop offset="0%" stop-color="#0f172a"/><stop offset="100%" stop-color="#1e3a5f"/></linearGradient><radialGradient id="innerLight" cx=".4" cy=".35" r=".7"><stop offset="0%" stop-color="#1e40af" stop-opacity=".25"/><stop offset="100%" stop-color="transparent" stop-opacity="0"/></radialGradient><filter id="logoGlow"><feGaussianBlur result="blur" stdDeviation="4"/><feMerge><feMergeNode in="blur"/><feMergeNode in="SourceGraphic"/></feMerge></filter><radialGradient id="ambientGlow" cx=".5" cy=".4" r=".35"><stop offset="0%" stop-color="#3b82f6" stop-opacity=".15"/><stop offset="100%" stop-color="transparent" stop-opacity="0"/></radialGradient></defs><rect width="512" height="512" fill="url(#bg)" rx="108"/><rect width="512" height="512" fill="url(#innerLight)" rx="108"/><rect width="509" height="509" x="1.5" y="1.5" fill="none" stroke="rgba(255,255,255,0.06)" stroke-width="1.5" rx="107"/><rect width="512" height="512" fill="url(#ambientGlow)" rx="108"/><g filter="url(#logoGlow)" transform="translate(256, 206) scale(4.2)"><line x1="0" x2="0" y1="18" y2="4" stroke="#3b82f6" stroke-linecap="round" stroke-width="2.6"/><path fill="none" stroke="#3b82f6" stroke-linecap="round" stroke-width="2.2" d="M0 4 Q0 -4 -10 -11"/><path fill="none" stroke="#3b82f6" stroke-linecap="round" stroke-width="2.2" d="M0 4 Q0 -4 10 -11"/><path fill="none" stroke="#60a5fa" stroke-linecap="round" stroke-width="1.5" d="M-10 -11 Q-14 -16 -17 -19"/><path fill="none" stroke="#60a5fa" stroke-linecap="round" stroke-width="1.5" d="M-10 -11 Q-10 -16 -7 -19"/><path fill="none" stroke="#60a5fa" stroke-linecap="round" stroke-width="1.5" d="M10 -11 Q7 -16 7 -19"/><path fill="none" stroke="#60a5fa" stroke-linecap="round" stroke-width="1.5" d="M10 -11 Q13 -16 17 -19"/><circle cx="0" cy="18" r="3.8" fill="#1d4ed8" stroke="#3b82f6" stroke-width="1.2"/><circle cx="0" cy="4" r="3" fill="#3b82f6"/><circle cx="-10" cy="-11" r="3" fill="#3b82f6"/><circle cx="10" cy="-11" r="3" fill="#3b82f6"/><circle cx="-17" cy="-19" r="2" fill="#60a5fa"/><circle cx="-7" cy="-19" r="2" fill="#60a5fa"/><circle cx="7" cy="-19" r="2" fill="#60a5fa"/><circle cx="17" cy="-19" r="2" fill="#60a5fa"/><rect width="15" height="2.8" x="-7.5" y="20.5" fill="#f59e0b" rx="1.4"/><rect width="2.8" height="3.5" x="-1.4" y="17.8" fill="#f59e0b" rx=".8"/><circle cx="0" cy="17.2" r="1.4" fill="#fbbf24"/></g><text x="256" y="382" fill="#fff" font-family="'Plus Jakarta Sans', -apple-system, system-ui, sans-serif" font-size="72" font-weight="800" letter-spacing="-3" text-anchor="middle">Study<tspan fill="#3b82f6">Hub</tspan></text><text x="256" y="424" fill="rgba(148,163,184,0.8)" font-family="'Plus Jakarta Sans', -apple-system, system-ui, sans-serif" font-size="24" font-weight="600" letter-spacing=".5" text-anchor="middle">The GitHub of Studying</text></svg>