<?xml version="1.0" encoding="UTF-8"?>
<!-- Use on blue (#1d4ed8) or dark backgrounds -->
<svg width="256" height="256" viewBox="0 0 80 80" fill="none" xmlns="http://www.w3.org/2000/svg">
  <line x1="40" y1="64" x2="40" y2="45" stroke="white" stroke-width="4" stroke-linecap="round"/>
  <path d="M40 45 Q40 33 25 23" stroke="white" stroke-width="3.5" fill="none" stroke-linecap="round"/>
  <path d="M40 45 Q40 33 55 23" stroke="white" stroke-width="3.5" fill="none" stroke-linecap="round"/>
  <path d="M25 23 Q19 16 14 11" stroke="rgba(255,255,255,0.55)" stroke-width="2.2" fill="none" stroke-linecap="round"/>
  <path d="M25 23 Q25 16 30 11" stroke="rgba(255,255,255,0.55)" stroke-width="2.2" fill="none" stroke-linecap="round"/>
  <path d="M55 23 Q51 16 50 11" stroke="rgba(255,255,255,0.55)" stroke-width="2.2" fill="none" stroke-linecap="round"/>
  <path d="M55 23 Q59 16 66 11" stroke="rgba(255,255,255,0.55)" stroke-width="2.2" fill="none" stroke-linecap="round"/>
  <circle cx="40" cy="64" r="5.5" fill="rgba(255,255,255,0.2)" stroke="white" stroke-width="2"/>
  <circle cx="40" cy="45" r="4.5" fill="white"/>
  <circle cx="25" cy="23" r="4.5" fill="white"/>
  <circle cx="55" cy="23" r="4.5" fill="white"/>
  <circle cx="14" cy="11" r="3"   fill="rgba(255,255,255,0.55)"/>
  <circle cx="30" cy="11" r="3"   fill="rgba(255,255,255,0.55)"/>
  <circle cx="50" cy="11" r="3"   fill="rgba(255,255,255,0.55)"/>
  <circle cx="66" cy="11" r="3"   fill="rgba(255,255,255,0.55)"/>
  <rect x="29" y="67" width="22" height="4.5" rx="2.2" fill="#f59e0b"/>
  <rect x="37.5" y="63" width="5" height="5.5" rx="1.5" fill="#f59e0b"/>
  <circle cx="40" cy="62" r="2" fill="#fbbf24"/>
</svg>
