<?xml version="1.0" encoding="UTF-8"?>
<svg width="220" height="56" viewBox="0 0 220 56" fill="none" xmlns="http://www.w3.org/2000/svg">
  <circle cx="28" cy="28" r="26" fill="#0f172a"/>
  <line x1="28" y1="46" x2="28" y2="32" stroke="#3b82f6" stroke-width="2.8" stroke-linecap="round"/>
  <path d="M28 32 Q28 24 18 17" stroke="#3b82f6" stroke-width="2.4" fill="none" stroke-linecap="round"/>
  <path d="M28 32 Q28 24 38 17" stroke="#3b82f6" stroke-width="2.4" fill="none" stroke-linecap="round"/>
  <path d="M18 17 Q14 12 11 9" stroke="#60a5fa" stroke-width="1.6" fill="none" stroke-linecap="round"/>
  <path d="M18 17 Q18 12 21 9" stroke="#60a5fa" stroke-width="1.6" fill="none" stroke-linecap="round"/>
  <path d="M38 17 Q35 12 35 9" stroke="#60a5fa" stroke-width="1.6" fill="none" stroke-linecap="round"/>
  <path d="M38 17 Q41 12 45 9" stroke="#60a5fa" stroke-width="1.6" fill="none" stroke-linecap="round"/>
  <circle cx="28" cy="46" r="4"   fill="#1d4ed8" stroke="#3b82f6" stroke-width="1.5"/>
  <circle cx="28" cy="32" r="3.2" fill="#3b82f6"/>
  <circle cx="18" cy="17" r="3.2" fill="#3b82f6"/>
  <circle cx="38" cy="17" r="3.2" fill="#3b82f6"/>
  <circle cx="11" cy="9"  r="2.2" fill="#60a5fa"/>
  <circle cx="21" cy="9"  r="2.2" fill="#60a5fa"/>
  <circle cx="35" cy="9"  r="2.2" fill="#60a5fa"/>
  <circle cx="45" cy="9"  r="2.2" fill="#60a5fa"/>
  <rect x="20" y="48.5" width="16" height="3" rx="1.5" fill="#f59e0b"/>
  <rect x="26.5" y="45.5" width="3" height="4" rx="1" fill="#f59e0b"/>
  <circle cx="28" cy="45" r="1.5" fill="#fbbf24"/>
  <text x="66" y="33" font-family="'Plus Jakarta Sans', system-ui, sans-serif" font-size="22" font-weight="800" letter-spacing="-0.5" fill="#0f172a">Study</text>
  <text x="130" y="33" font-family="'Plus Jakarta Sans', system-ui, sans-serif" font-size="22" font-weight="800" letter-spacing="-0.5" fill="#1d4ed8">Hub</text>
  <text x="67" y="46" font-family="'Plus Jakarta Sans', system-ui, sans-serif" font-size="9.5" font-weight="500" letter-spacing="0.13em" fill="#94a3b8">THE GITHUB OF STUDYING</text>
</svg>
